<svg xmlns="http://www.w3.org/2000/svg" xmlns:xlink="http://www.w3.org/1999/xlink" width="500" zoomAndPan="magnify" viewBox="0 0 375 374.999991" height="500" preserveAspectRatio="xMidYMid meet" version="1.2"><defs><clipPath id="61e546e623"><path d="M 14.296875 0 L 305 0 L 305 375 L 14.296875 375 Z M 14.296875 0 "/></clipPath><clipPath id="bed9f21b8a"><path d="M 233 73 L 360.796875 73 L 360.796875 164 L 233 164 Z M 233 73 "/></clipPath><clipPath id="04d7ca801a"><path d="M 14.296875 0 L 305 0 L 305 375 L 14.296875 375 Z M 14.296875 0 "/></clipPath><clipPath id="5b96447188"><path d="M 233 73 L 360.796875 73 L 360.796875 164 L 233 164 Z M 233 73 "/></clipPath></defs><g id="9b655ffa8a"><g clip-rule="nonzero" clip-path="url(#61e546e623)"><path style=" stroke:none;fill-rule:nonzero;fill:#8eea6d;fill-opacity:1;" d="M 56.078125 6.839844 L 85.242188 6.839844 C 85.605469 2.878906 89.023438 0 92.984375 0 L 225.484375 0 C 229.445312 0 232.867188 3.058594 233.046875 6.839844 L 262.390625 6.839844 C 273.914062 6.839844 284.175781 11.703125 291.917969 19.082031 C 299.476562 26.644531 304.160156 37.085938 304.160156 48.609375 L 304.160156 83.351562 L 290.296875 91.453125 L 290.296875 48.789062 C 290.296875 41.226562 287.234375 34.027344 282.015625 29.164062 C 277.15625 24.125 269.953125 20.882812 262.390625 20.882812 L 233.046875 20.882812 C 232.6875 24.84375 229.265625 27.90625 225.484375 27.90625 L 92.984375 27.90625 C 89.023438 27.90625 85.605469 24.84375 85.242188 20.882812 L 56.078125 20.882812 C 48.519531 20.882812 41.316406 23.945312 36.277344 29.164062 C 31.414062 34.027344 28.175781 41.226562 28.175781 48.789062 L 28.175781 333.414062 C 28.175781 340.972656 31.234375 348.175781 36.277344 353.035156 C 41.316406 358.078125 48.335938 361.316406 56.078125 361.316406 L 262.570312 361.316406 C 270.132812 361.316406 277.335938 358.257812 282.195312 353.035156 C 287.234375 348.175781 290.476562 340.972656 290.476562 333.414062 L 290.476562 157.707031 L 304.339844 149.605469 L 304.339844 333.234375 C 304.339844 344.753906 299.476562 355.195312 292.097656 362.757812 C 284.535156 370.320312 274.09375 375 262.570312 375 L 56.078125 375 C 44.558594 375 34.117188 370.140625 26.554688 362.757812 C 18.992188 355.195312 14.3125 344.753906 14.3125 333.234375 L 14.3125 48.609375 C 14.3125 37.085938 18.992188 26.824219 26.554688 19.082031 C 34.117188 11.523438 44.558594 6.839844 56.078125 6.839844 Z M 56.078125 6.839844 "/></g><path style=" stroke:none;fill-rule:nonzero;fill:#8eea6d;fill-opacity:1;" d="M 73.363281 201.632812 C 71.203125 199.652344 71.203125 196.410156 73.363281 194.429688 C 75.34375 192.269531 78.582031 192.269531 80.5625 194.429688 L 89.925781 203.792969 L 108.105469 172.46875 C 109.367188 170.128906 112.609375 169.226562 115.128906 170.667969 C 117.46875 171.925781 118.367188 175.167969 116.929688 177.6875 L 95.867188 214.414062 C 95.503906 214.773438 95.324219 215.3125 94.785156 215.675781 C 92.804688 217.65625 89.5625 217.65625 87.585938 215.675781 L 73.363281 201.453125 Z M 73.363281 201.632812 "/><path style=" stroke:none;fill-rule:nonzero;fill:#8eea6d;fill-opacity:1;" d="M 135.832031 201.273438 C 132.953125 201.273438 130.789062 199.113281 130.789062 196.230469 C 130.789062 193.351562 132.953125 191.191406 135.832031 191.191406 L 241.867188 191.191406 C 244.75 191.191406 246.910156 193.351562 246.910156 196.230469 C 246.910156 199.113281 244.75 201.273438 241.867188 201.273438 Z M 135.832031 201.273438 "/><path style=" stroke:none;fill-rule:nonzero;fill:#8eea6d;fill-opacity:1;" d="M 73.363281 255.101562 C 71.203125 253.121094 71.203125 249.878906 73.363281 247.898438 C 75.34375 245.738281 78.582031 245.738281 80.5625 247.898438 L 89.925781 257.261719 L 108.105469 225.9375 C 109.367188 223.597656 112.609375 222.695312 115.128906 224.136719 C 117.46875 225.394531 118.367188 228.636719 116.929688 231.15625 L 95.867188 267.882812 C 95.503906 268.242188 95.324219 268.78125 94.785156 269.144531 C 92.804688 271.125 89.5625 271.125 87.585938 269.144531 L 73.363281 254.921875 Z M 73.363281 255.101562 "/><path style=" stroke:none;fill-rule:nonzero;fill:#8eea6d;fill-opacity:1;" d="M 135.832031 254.742188 C 132.953125 254.742188 130.789062 252.582031 130.789062 249.699219 C 130.789062 246.820312 132.953125 244.660156 135.832031 244.660156 L 241.867188 244.660156 C 244.75 244.660156 246.910156 246.820312 246.910156 249.699219 C 246.910156 252.582031 244.75 254.742188 241.867188 254.742188 Z M 135.832031 254.742188 "/><path style=" stroke:none;fill-rule:nonzero;fill:#8eea6d;fill-opacity:1;" d="M 73.363281 308.570312 C 71.203125 306.589844 71.203125 303.347656 73.363281 301.367188 C 75.34375 299.207031 78.582031 299.207031 80.5625 301.367188 L 89.925781 310.730469 L 108.105469 279.40625 C 109.367188 277.0625 112.609375 276.164062 115.128906 277.605469 C 117.46875 278.863281 118.367188 282.105469 116.929688 284.445312 L 95.867188 321.351562 C 95.503906 321.710938 95.324219 322.25 94.785156 322.613281 C 92.804688 324.59375 89.5625 324.59375 87.585938 322.613281 L 73.363281 308.390625 Z M 73.363281 308.570312 "/><path style=" stroke:none;fill-rule:nonzero;fill:#8eea6d;fill-opacity:1;" d="M 135.832031 308.210938 C 132.953125 308.210938 130.789062 306.050781 130.789062 303.167969 C 130.789062 300.289062 132.953125 297.949219 135.832031 297.949219 L 241.867188 297.949219 C 244.75 297.949219 246.910156 300.289062 246.910156 303.167969 C 246.910156 306.050781 244.75 308.210938 241.867188 308.210938 Z M 135.832031 308.210938 "/><path style=" stroke:none;fill-rule:evenodd;fill:#8eea6d;fill-opacity:1;" d="M 159.414062 52.386719 C 185.699219 52.386719 206.941406 73.632812 206.941406 99.914062 C 206.941406 126.199219 185.699219 147.445312 159.414062 147.445312 C 133.132812 147.445312 111.886719 126.199219 111.886719 99.914062 C 111.886719 73.632812 133.132812 52.386719 159.414062 52.386719 Z M 159.414062 75.253906 C 166.976562 75.253906 173.277344 81.371094 173.277344 89.113281 C 173.277344 96.675781 167.15625 102.976562 159.414062 102.976562 C 151.855469 102.976562 145.554688 96.855469 145.554688 89.113281 C 145.554688 81.554688 151.675781 75.253906 159.414062 75.253906 Z M 149.875 106.9375 L 168.957031 106.9375 C 177.957031 106.9375 185.160156 114.136719 185.160156 123.140625 L 185.160156 124.398438 L 133.671875 124.398438 L 133.671875 123.140625 C 133.671875 114.136719 140.871094 106.9375 149.875 106.9375 Z M 149.875 106.9375 "/><g clip-rule="nonzero" clip-path="url(#bed9f21b8a)"><path style=" stroke:none;fill-rule:evenodd;fill:#8eea6d;fill-opacity:1;" d="M 343.585938 75.613281 L 359.425781 102.976562 C 360.6875 105.136719 359.96875 107.835938 357.808594 109.097656 L 265.273438 162.566406 C 264.371094 163.105469 263.472656 163.285156 262.390625 163.105469 L 237.367188 159.324219 C 235.929688 159.144531 234.847656 158.425781 234.128906 157.164062 C 233.40625 155.90625 233.40625 154.644531 233.765625 153.382812 L 242.949219 129.800781 C 243.308594 128.902344 244.027344 128 244.929688 127.640625 L 337.464844 74.171875 C 339.625 72.910156 342.324219 73.632812 343.585938 75.792969 Z M 338.183594 83.351562 C 338.722656 84.433594 338.363281 85.695312 337.464844 86.234375 L 254.832031 133.941406 C 253.75 134.480469 252.492188 134.121094 251.949219 133.222656 C 251.410156 132.140625 251.769531 130.882812 252.671875 130.339844 L 335.304688 82.632812 C 336.382812 82.09375 337.644531 82.453125 338.183594 83.351562 Z M 338.183594 83.351562 "/></g><g clip-rule="nonzero" clip-path="url(#04d7ca801a)"><path style=" stroke:none;fill-rule:nonzero;fill:#8eea6d;fill-opacity:1;" d="M 56.078125 6.839844 L 85.242188 6.839844 C 85.605469 2.878906 89.023438 0 92.984375 0 L 225.484375 0 C 229.445312 0 232.867188 3.058594 233.046875 6.839844 L 262.390625 6.839844 C 273.914062 6.839844 284.175781 11.703125 291.917969 19.082031 C 299.476562 26.644531 304.160156 37.085938 304.160156 48.609375 L 304.160156 83.351562 L 290.296875 91.453125 L 290.296875 48.789062 C 290.296875 41.226562 287.234375 34.027344 282.015625 29.164062 C 277.15625 24.125 269.953125 20.882812 262.390625 20.882812 L 233.046875 20.882812 C 232.6875 24.84375 229.265625 27.90625 225.484375 27.90625 L 92.984375 27.90625 C 89.023438 27.90625 85.605469 24.84375 85.242188 20.882812 L 56.078125 20.882812 C 48.519531 20.882812 41.316406 23.945312 36.277344 29.164062 C 31.414062 34.027344 28.175781 41.226562 28.175781 48.789062 L 28.175781 333.414062 C 28.175781 340.972656 31.234375 348.175781 36.277344 353.035156 C 41.316406 358.078125 48.335938 361.316406 56.078125 361.316406 L 262.570312 361.316406 C 270.132812 361.316406 277.335938 358.257812 282.195312 353.035156 C 287.234375 348.175781 290.476562 340.972656 290.476562 333.414062 L 290.476562 157.707031 L 304.339844 149.605469 L 304.339844 333.234375 C 304.339844 344.753906 299.476562 355.195312 292.097656 362.757812 C 284.535156 370.320312 274.09375 375 262.570312 375 L 56.078125 375 C 44.558594 375 34.117188 370.140625 26.554688 362.757812 C 18.992188 355.195312 14.3125 344.753906 14.3125 333.234375 L 14.3125 48.609375 C 14.3125 37.085938 18.992188 26.824219 26.554688 19.082031 C 34.117188 11.523438 44.558594 6.839844 56.078125 6.839844 Z M 56.078125 6.839844 "/></g><path style=" stroke:none;fill-rule:nonzero;fill:#8eea6d;fill-opacity:1;" d="M 73.363281 201.632812 C 71.203125 199.652344 71.203125 196.410156 73.363281 194.429688 C 75.34375 192.269531 78.582031 192.269531 80.5625 194.429688 L 89.925781 203.792969 L 108.105469 172.46875 C 109.367188 170.128906 112.609375 169.226562 115.128906 170.667969 C 117.46875 171.925781 118.367188 175.167969 116.929688 177.6875 L 95.867188 214.414062 C 95.503906 214.773438 95.324219 215.3125 94.785156 215.675781 C 92.804688 217.65625 89.5625 217.65625 87.585938 215.675781 L 73.363281 201.453125 Z M 73.363281 201.632812 "/><path style=" stroke:none;fill-rule:nonzero;fill:#8eea6d;fill-opacity:1;" d="M 135.832031 201.273438 C 132.953125 201.273438 130.789062 199.113281 130.789062 196.230469 C 130.789062 193.351562 132.953125 191.191406 135.832031 191.191406 L 241.867188 191.191406 C 244.75 191.191406 246.910156 193.351562 246.910156 196.230469 C 246.910156 199.113281 244.75 201.273438 241.867188 201.273438 Z M 135.832031 201.273438 "/><path style=" stroke:none;fill-rule:nonzero;fill:#8eea6d;fill-opacity:1;" d="M 73.363281 255.101562 C 71.203125 253.121094 71.203125 249.878906 73.363281 247.898438 C 75.34375 245.738281 78.582031 245.738281 80.5625 247.898438 L 89.925781 257.261719 L 108.105469 225.9375 C 109.367188 223.597656 112.609375 222.695312 115.128906 224.136719 C 117.46875 225.394531 118.367188 228.636719 116.929688 231.15625 L 95.867188 267.882812 C 95.503906 268.242188 95.324219 268.78125 94.785156 269.144531 C 92.804688 271.125 89.5625 271.125 87.585938 269.144531 L 73.363281 254.921875 Z M 73.363281 255.101562 "/><path style=" stroke:none;fill-rule:nonzero;fill:#8eea6d;fill-opacity:1;" d="M 135.832031 254.742188 C 132.953125 254.742188 130.789062 252.582031 130.789062 249.699219 C 130.789062 246.820312 132.953125 244.660156 135.832031 244.660156 L 241.867188 244.660156 C 244.75 244.660156 246.910156 246.820312 246.910156 249.699219 C 246.910156 252.582031 244.75 254.742188 241.867188 254.742188 Z M 135.832031 254.742188 "/><path style=" stroke:none;fill-rule:nonzero;fill:#8eea6d;fill-opacity:1;" d="M 73.363281 308.570312 C 71.203125 306.589844 71.203125 303.347656 73.363281 301.367188 C 75.34375 299.207031 78.582031 299.207031 80.5625 301.367188 L 89.925781 310.730469 L 108.105469 279.40625 C 109.367188 277.0625 112.609375 276.164062 115.128906 277.605469 C 117.46875 278.863281 118.367188 282.105469 116.929688 284.445312 L 95.867188 321.351562 C 95.503906 321.710938 95.324219 322.25 94.785156 322.613281 C 92.804688 324.59375 89.5625 324.59375 87.585938 322.613281 L 73.363281 308.390625 Z M 73.363281 308.570312 "/><path style=" stroke:none;fill-rule:nonzero;fill:#8eea6d;fill-opacity:1;" d="M 135.832031 308.210938 C 132.953125 308.210938 130.789062 306.050781 130.789062 303.167969 C 130.789062 300.289062 132.953125 297.949219 135.832031 297.949219 L 241.867188 297.949219 C 244.75 297.949219 246.910156 300.289062 246.910156 303.167969 C 246.910156 306.050781 244.75 308.210938 241.867188 308.210938 Z M 135.832031 308.210938 "/><path style=" stroke:none;fill-rule:evenodd;fill:#8eea6d;fill-opacity:1;" d="M 159.414062 52.386719 C 185.699219 52.386719 206.941406 73.632812 206.941406 99.914062 C 206.941406 126.199219 185.699219 147.445312 159.414062 147.445312 C 133.132812 147.445312 111.886719 126.199219 111.886719 99.914062 C 111.886719 73.632812 133.132812 52.386719 159.414062 52.386719 Z M 159.414062 75.253906 C 166.976562 75.253906 173.277344 81.371094 173.277344 89.113281 C 173.277344 96.675781 167.15625 102.976562 159.414062 102.976562 C 151.855469 102.976562 145.554688 96.855469 145.554688 89.113281 C 145.554688 81.554688 151.675781 75.253906 159.414062 75.253906 Z M 149.875 106.9375 L 168.957031 106.9375 C 177.957031 106.9375 185.160156 114.136719 185.160156 123.140625 L 185.160156 124.398438 L 133.671875 124.398438 L 133.671875 123.140625 C 133.671875 114.136719 140.871094 106.9375 149.875 106.9375 Z M 149.875 106.9375 "/><g clip-rule="nonzero" clip-path="url(#5b96447188)"><path style=" stroke:none;fill-rule:evenodd;fill:#8eea6d;fill-opacity:1;" d="M 343.585938 75.613281 L 359.425781 102.976562 C 360.6875 105.136719 359.96875 107.835938 357.808594 109.097656 L 265.273438 162.566406 C 264.371094 163.105469 263.472656 163.285156 262.390625 163.105469 L 237.367188 159.324219 C 235.929688 159.144531 234.847656 158.425781 234.128906 157.164062 C 233.40625 155.90625 233.40625 154.644531 233.765625 153.382812 L 242.949219 129.800781 C 243.308594 128.902344 244.027344 128 244.929688 127.640625 L 337.464844 74.171875 C 339.625 72.910156 342.324219 73.632812 343.585938 75.792969 Z M 338.183594 83.351562 C 338.722656 84.433594 338.363281 85.695312 337.464844 86.234375 L 254.832031 133.941406 C 253.75 134.480469 252.492188 134.121094 251.949219 133.222656 C 251.410156 132.140625 251.769531 130.882812 252.671875 130.339844 L 335.304688 82.632812 C 336.382812 82.09375 337.644531 82.453125 338.183594 83.351562 Z M 338.183594 83.351562 "/></g></g></svg>